mtllib cute_orca.mtl
o Cute_Orca
v 0.00000 0.00000 1.45000
v 0.00000 0.00000 1.45000
v 0.00000 0.00000 1.45000
v 0.00000 0.00000 1.45000
v 0.00000 0.00000 1.45000
v 0.00000 0.00000 1.45000
v 0.00000 0.00000 1.45000
v 0.00000 0.00000 1.45000
v 0.00000 0.00000 1.45000
v 0.00000 0.00000 1.45000
v 0.00000 0.00000 1.45000
v 0.00000 0.00000 1.45000
v 0.00000 0.00000 1.45000
v 0.00000 0.00000 1.45000
v 0.00000 0.00000 1.45000
v 0.00000 0.00000 1.45000
v 0.00000 0.00000 1.45000
v 0.00000 0.00000 1.45000
v 0.00000 0.00000 1.45000
v 0.00000 0.00000 1.45000
v 0.00000 0.00000 1.45000
v 0.00000 0.00000 1.45000
v 0.00000 0.00000 1.45000
v 0.00000 0.00000 1.45000
v 0.95763 0.00000 1.40059
v 0.92500 0.10383 1.40059
v 0.82933 0.20058 1.40059
v 0.67715 0.28367 1.40059
v 0.47882 0.34742 1.40059
v 0.24785 0.38750 1.40059
v 0.00000 0.40117 1.40059
v -0.24785 0.38750 1.40059
v -0.47882 0.34742 1.40059
v -0.67715 0.28367 1.40059
v -0.82933 0.20058 1.40059
v -0.92500 0.10383 1.40059
v -0.95763 0.00000 1.40059
v -0.92500 -0.10383 1.40059
v -0.82933 -0.20058 1.40059
v -0.67715 -0.28367 1.40059
v -0.47882 -0.34742 1.40059
v -0.24785 -0.38750 1.40059
v -0.00000 -0.40117 1.40059
v 0.24785 -0.38750 1.40059
v 0.47882 -0.34742 1.40059
v 0.67715 -0.28367 1.40059
v 0.82933 -0.20058 1.40059
v 0.92500 -0.10383 1.40059
v 1.85000 0.00000 1.25574
v 1.78696 0.20058 1.25574
v 1.60215 0.38750 1.25574
v 1.30815 0.54801 1.25574
v 0.92500 0.67117 1.25574
v 0.47882 0.74859 1.25574
v 0.00000 0.77500 1.25574
v -0.47882 0.74859 1.25574
v -0.92500 0.67117 1.25574
v -1.30815 0.54801 1.25574
v -1.60215 0.38750 1.25574
v -1.78696 0.20058 1.25574
v -1.85000 0.00000 1.25574
v -1.78696 -0.20058 1.25574
v -1.60215 -0.38750 1.25574
v -1.30815 -0.54801 1.25574
v -0.92500 -0.67117 1.25574
v -0.47882 -0.74859 1.25574
v -0.00000 -0.77500 1.25574
v 0.47882 -0.74859 1.25574
v 0.92500 -0.67117 1.25574
v 1.30815 -0.54801 1.25574
v 1.60215 -0.38750 1.25574
v 1.78696 -0.20058 1.25574
v 2.61630 0.00000 1.02530
v 2.52715 0.28367 1.02530
v 2.26578 0.54801 1.02530
v 1.85000 0.77500 1.02530
v 1.30815 0.94918 1.02530
v 0.67715 1.05867 1.02530
v 0.00000 1.09602 1.02530
v -0.67715 1.05867 1.02530
v -1.30815 0.94918 1.02530
v -1.85000 0.77500 1.02530
v -2.26578 0.54801 1.02530
v -2.52715 0.28367 1.02530
v -2.61630 0.00000 1.02530
v -2.52715 -0.28367 1.02530
v -2.26578 -0.54801 1.02530
v -1.85000 -0.77500 1.02530
v -1.30815 -0.94918 1.02530
v -0.67715 -1.05867 1.02530
v -0.00000 -1.09602 1.02530
v 0.67715 -1.05867 1.02530
v 1.30815 -0.94918 1.02530
v 1.85000 -0.77500 1.02530
v 2.26578 -0.54801 1.02530
v 2.52715 -0.28367 1.02530
v 3.20429 0.00000 0.72500
v 3.09511 0.34742 0.72500
v 2.77500 0.67117 0.72500
v 2.26578 0.94918 0.72500
v 1.60215 1.16250 0.72500
v 0.82933 1.29660 0.72500
v 0.00000 1.34234 0.72500
v -0.82933 1.29660 0.72500
v -1.60215 1.16250 0.72500
v -2.26578 0.94918 0.72500
v -2.77500 0.67117 0.72500
v -3.09511 0.34742 0.72500
v -3.20429 0.00000 0.72500
v -3.09511 -0.34742 0.72500
v -2.77500 -0.67117 0.72500
v -2.26578 -0.94918 0.72500
v -1.60215 -1.16250 0.72500
v -0.82933 -1.29660 0.72500
v -0.00000 -1.34234 0.72500
v 0.82933 -1.29660 0.72500
v 1.60215 -1.16250 0.72500
v 2.26578 -0.94918 0.72500
v 2.77500 -0.67117 0.72500
v 3.09511 -0.34742 0.72500
v 3.57393 0.00000 0.37529
v 3.45215 0.38750 0.37529
v 3.09511 0.74859 0.37529
v 2.52715 1.05867 0.37529
v 1.78696 1.29660 0.37529
v 0.92500 1.44617 0.37529
v 0.00000 1.49719 0.37529
v -0.92500 1.44617 0.37529
v -1.78696 1.29660 0.37529
v -2.52715 1.05867 0.37529
v -3.09511 0.74859 0.37529
v -3.45215 0.38750 0.37529
v -3.57393 0.00000 0.37529
v -3.45215 -0.38750 0.37529
v -3.09511 -0.74859 0.37529
v -2.52715 -1.05867 0.37529
v -1.78696 -1.29660 0.37529
v -0.92500 -1.44617 0.37529
v -0.00000 -1.49719 0.37529
v 0.92500 -1.44617 0.37529
v 1.78696 -1.29660 0.37529
v 2.52715 -1.05867 0.37529
v 3.09511 -0.74859 0.37529
v 3.45215 -0.38750 0.37529
v 3.70000 0.00000 0.00000
v 3.57393 0.40117 0.00000
v 3.20429 0.77500 0.00000
v 2.61630 1.09602 0.00000
v 1.85000 1.34234 0.00000
v 0.95763 1.49719 0.00000
v 0.00000 1.55000 0.00000
v -0.95763 1.49719 0.00000
v -1.85000 1.34234 0.00000
v -2.61630 1.09602 0.00000
v -3.20429 0.77500 0.00000
v -3.57393 0.40117 0.00000
v -3.70000 0.00000 0.00000
v -3.57393 -0.40117 0.00000
v -3.20429 -0.77500 0.00000
v -2.61630 -1.09602 0.00000
v -1.85000 -1.34234 0.00000
v -0.95763 -1.49719 0.00000
v -0.00000 -1.55000 0.00000
v 0.95763 -1.49719 0.00000
v 1.85000 -1.34234 0.00000
v 2.61630 -1.09602 0.00000
v 3.20429 -0.77500 0.00000
v 3.57393 -0.40117 0.00000
v 3.57393 0.00000 -0.37529
v 3.45215 0.38750 -0.37529
v 3.09511 0.74859 -0.37529
v 2.52715 1.05867 -0.37529
v 1.78696 1.29660 -0.37529
v 0.92500 1.44617 -0.37529
v 0.00000 1.49719 -0.37529
v -0.92500 1.44617 -0.37529
v -1.78696 1.29660 -0.37529
v -2.52715 1.05867 -0.37529
v -3.09511 0.74859 -0.37529
v -3.45215 0.38750 -0.37529
v -3.57393 0.00000 -0.37529
v -3.45215 -0.38750 -0.37529
v -3.09511 -0.74859 -0.37529
v -2.52715 -1.05867 -0.37529
v -1.78696 -1.29660 -0.37529
v -0.92500 -1.44617 -0.37529
v -0.00000 -1.49719 -0.37529
v 0.92500 -1.44617 -0.37529
v 1.78696 -1.29660 -0.37529
v 2.52715 -1.05867 -0.37529
v 3.09511 -0.74859 -0.37529
v 3.45215 -0.38750 -0.37529
v 3.20429 0.00000 -0.72500
v 3.09511 0.34742 -0.72500
v 2.77500 0.67117 -0.72500
v 2.26578 0.94918 -0.72500
v 1.60215 1.16250 -0.72500
v 0.82933 1.29660 -0.72500
v 0.00000 1.34234 -0.72500
v -0.82933 1.29660 -0.72500
v -1.60215 1.16250 -0.72500
v -2.26578 0.94918 -0.72500
v -2.77500 0.67117 -0.72500
v -3.09511 0.34742 -0.72500
v -3.20429 0.00000 -0.72500
v -3.09511 -0.34742 -0.72500
v -2.77500 -0.67117 -0.72500
v -2.26578 -0.94918 -0.72500
v -1.60215 -1.16250 -0.72500
v -0.82933 -1.29660 -0.72500
v -0.00000 -1.34234 -0.72500
v 0.82933 -1.29660 -0.72500
v 1.60215 -1.16250 -0.72500
v 2.26578 -0.94918 -0.72500
v 2.77500 -0.67117 -0.72500
v 3.09511 -0.34742 -0.72500
v 2.61630 0.00000 -1.02530
v 2.52715 0.28367 -1.02530
v 2.26578 0.54801 -1.02530
v 1.85000 0.77500 -1.02530
v 1.30815 0.94918 -1.02530
v 0.67715 1.05867 -1.02530
v 0.00000 1.09602 -1.02530
v -0.67715 1.05867 -1.02530
v -1.30815 0.94918 -1.02530
v -1.85000 0.77500 -1.02530
v -2.26578 0.54801 -1.02530
v -2.52715 0.28367 -1.02530
v -2.61630 0.00000 -1.02530
v -2.52715 -0.28367 -1.02530
v -2.26578 -0.54801 -1.02530
v -1.85000 -0.77500 -1.02530
v -1.30815 -0.94918 -1.02530
v -0.67715 -1.05867 -1.02530
v -0.00000 -1.09602 -1.02530
v 0.67715 -1.05867 -1.02530
v 1.30815 -0.94918 -1.02530
v 1.85000 -0.77500 -1.02530
v 2.26578 -0.54801 -1.02530
v 2.52715 -0.28367 -1.02530
v 1.85000 0.00000 -1.25574
v 1.78696 0.20058 -1.25574
v 1.60215 0.38750 -1.25574
v 1.30815 0.54801 -1.25574
v 0.92500 0.67117 -1.25574
v 0.47882 0.74859 -1.25574
v 0.00000 0.77500 -1.25574
v -0.47882 0.74859 -1.25574
v -0.92500 0.67117 -1.25574
v -1.30815 0.54801 -1.25574
v -1.60215 0.38750 -1.25574
v -1.78696 0.20058 -1.25574
v -1.85000 0.00000 -1.25574
v -1.78696 -0.20058 -1.25574
v -1.60215 -0.38750 -1.25574
v -1.30815 -0.54801 -1.25574
v -0.92500 -0.67117 -1.25574
v -0.47882 -0.74859 -1.25574
v -0.00000 -0.77500 -1.25574
v 0.47882 -0.74859 -1.25574
v 0.92500 -0.67117 -1.25574
v 1.30815 -0.54801 -1.25574
v 1.60215 -0.38750 -1.25574
v 1.78696 -0.20058 -1.25574
v 0.95763 0.00000 -1.40059
v 0.92500 0.10383 -1.40059
v 0.82933 0.20058 -1.40059
v 0.67715 0.28367 -1.40059
v 0.47882 0.34742 -1.40059
v 0.24785 0.38750 -1.40059
v 0.00000 0.40117 -1.40059
v -0.24785 0.38750 -1.40059
v -0.47882 0.34742 -1.40059
v -0.67715 0.28367 -1.40059
v -0.82933 0.20058 -1.40059
v -0.92500 0.10383 -1.40059
v -0.95763 0.00000 -1.40059
v -0.92500 -0.10383 -1.40059
v -0.82933 -0.20058 -1.40059
v -0.67715 -0.28367 -1.40059
v -0.47882 -0.34742 -1.40059
v -0.24785 -0.38750 -1.40059
v -0.00000 -0.40117 -1.40059
v 0.24785 -0.38750 -1.40059
v 0.47882 -0.34742 -1.40059
v 0.67715 -0.28367 -1.40059
v 0.82933 -0.20058 -1.40059
v 0.92500 -0.10383 -1.40059
v 0.00000 0.00000 -1.45000
v 0.00000 0.00000 -1.45000
v 0.00000 0.00000 -1.45000
v 0.00000 0.00000 -1.45000
v 0.00000 0.00000 -1.45000
v 0.00000 0.00000 -1.45000
v 0.00000 0.00000 -1.45000
v -0.00000 0.00000 -1.45000
v -0.00000 0.00000 -1.45000
v -0.00000 0.00000 -1.45000
v -0.00000 0.00000 -1.45000
v -0.00000 0.00000 -1.45000
v -0.00000 0.00000 -1.45000
v -0.00000 -0.00000 -1.45000
v -0.00000 -0.00000 -1.45000
v -0.00000 -0.00000 -1.45000
v -0.00000 -0.00000 -1.45000
v -0.00000 -0.00000 -1.45000
v -0.00000 -0.00000 -1.45000
v 0.00000 -0.00000 -1.45000
v 0.00000 -0.00000 -1.45000
v 0.00000 -0.00000 -1.45000
v 0.00000 -0.00000 -1.45000
v 0.00000 -0.00000 -1.45000
v -0.25000 0.00000 -0.50000
v -0.25000 0.00000 -0.50000
v -0.25000 0.00000 -0.50000
v -0.25000 0.00000 -0.50000
v -0.25000 0.00000 -0.50000
v -0.25000 0.00000 -0.50000
v -0.25000 0.00000 -0.50000
v -0.25000 0.00000 -0.50000
v -0.25000 0.00000 -0.50000
v -0.25000 0.00000 -0.50000
v -0.25000 0.00000 -0.50000
v -0.25000 0.00000 -0.50000
v -0.25000 0.00000 -0.50000
v -0.25000 0.00000 -0.50000
v -0.25000 0.00000 -0.50000
v -0.25000 0.00000 -0.50000
v -0.25000 0.00000 -0.50000
v -0.25000 0.00000 -0.50000
v -0.25000 0.00000 -0.50000
v -0.25000 0.00000 -0.50000
v -0.25000 0.00000 -0.50000
v -0.25000 0.00000 -0.50000
v -0.25000 0.00000 -0.50000
v -0.25000 0.00000 -0.50000
v 1.07500 0.00000 -0.52947
v 1.02985 0.17470 -0.52947
v 0.89748 0.33750 -0.52947
v 0.68692 0.47730 -0.52947
v 0.41250 0.58457 -0.52947
v 0.09294 0.65200 -0.52947
v -0.25000 0.67500 -0.52947
v -0.59294 0.65200 -0.52947
v -0.91250 0.58457 -0.52947
v -1.18692 0.47730 -0.52947
v -1.39748 0.33750 -0.52947
v -1.52985 0.17470 -0.52947
v -1.57500 0.00000 -0.52947
v -1.52985 -0.17470 -0.52947
v -1.39748 -0.33750 -0.52947
v -1.18692 -0.47730 -0.52947
v -0.91250 -0.58457 -0.52947
v -0.59294 -0.65200 -0.52947
v -0.25000 -0.67500 -0.52947
v 0.09294 -0.65200 -0.52947
v 0.41250 -0.58457 -0.52947
v 0.68692 -0.47730 -0.52947
v 0.89748 -0.33750 -0.52947
v 1.02985 -0.17470 -0.52947
v 2.04497 0.00000 -0.61000
v 1.96677 0.30259 -0.61000
v 1.73750 0.58457 -0.61000
v 1.37279 0.82670 -0.61000
v 0.89748 1.01250 -0.61000
v 0.34398 1.12930 -0.61000
v -0.25000 1.16913 -0.61000
v -0.84398 1.12930 -0.61000
v -1.39748 1.01250 -0.61000
v -1.87279 0.82670 -0.61000
v -2.23750 0.58457 -0.61000
v -2.46677 0.30259 -0.61000
v -2.54497 0.00000 -0.61000
v -2.46677 -0.30259 -0.61000
v -2.23750 -0.58457 -0.61000
v -1.87279 -0.82670 -0.61000
v -1.39748 -1.01250 -0.61000
v -0.84398 -1.12930 -0.61000
v -0.25000 -1.16913 -0.61000
v 0.34398 -1.12930 -0.61000
v 0.89748 -1.01250 -0.61000
v 1.37279 -0.82670 -0.61000
v 1.73750 -0.58457 -0.61000
v 1.96677 -0.30259 -0.61000
v 2.40000 0.00000 -0.72000
v 2.30970 0.34941 -0.72000
v 2.04497 0.67500 -0.72000
v 1.62383 0.95459 -0.72000
v 1.07500 1.16913 -0.72000
v 0.43587 1.30400 -0.72000
v -0.25000 1.35000 -0.72000
v -0.93587 1.30400 -0.72000
v -1.57500 1.16913 -0.72000
v -2.12383 0.95459 -0.72000
v -2.54497 0.67500 -0.72000
v -2.80970 0.34941 -0.72000
v -2.90000 0.00000 -0.72000
v -2.80970 -0.34941 -0.72000
v -2.54497 -0.67500 -0.72000
v -2.12383 -0.95459 -0.72000
v -1.57500 -1.16913 -0.72000
v -0.93587 -1.30400 -0.72000
v -0.25000 -1.35000 -0.72000
v 0.43587 -1.30400 -0.72000
v 1.07500 -1.16913 -0.72000
v 1.62383 -0.95459 -0.72000
v 2.04497 -0.67500 -0.72000
v 2.30970 -0.34941 -0.72000
v 2.04497 0.00000 -0.83000
v 1.96677 0.30259 -0.83000
v 1.73750 0.58457 -0.83000
v 1.37279 0.82670 -0.83000
v 0.89748 1.01250 -0.83000
v 0.34398 1.12930 -0.83000
v -0.25000 1.16913 -0.83000
v -0.84398 1.12930 -0.83000
v -1.39748 1.01250 -0.83000
v -1.87279 0.82670 -0.83000
v -2.23750 0.58457 -0.83000
v -2.46677 0.30259 -0.83000
v -2.54497 0.00000 -0.83000
v -2.46677 -0.30259 -0.83000
v -2.23750 -0.58457 -0.83000
v -1.87279 -0.82670 -0.83000
v -1.39748 -1.01250 -0.83000
v -0.84398 -1.12930 -0.83000
v -0.25000 -1.16913 -0.83000
v 0.34398 -1.12930 -0.83000
v 0.89748 -1.01250 -0.83000
v 1.37279 -0.82670 -0.83000
v 1.73750 -0.58457 -0.83000
v 1.96677 -0.30259 -0.83000
v 1.07500 0.00000 -0.91053
v 1.02985 0.17470 -0.91053
v 0.89748 0.33750 -0.91053
v 0.68692 0.47730 -0.91053
v 0.41250 0.58457 -0.91053
v 0.09294 0.65200 -0.91053
v -0.25000 0.67500 -0.91053
v -0.59294 0.65200 -0.91053
v -0.91250 0.58457 -0.91053
v -1.18692 0.47730 -0.91053
v -1.39748 0.33750 -0.91053
v -1.52985 0.17470 -0.91053
v -1.57500 0.00000 -0.91053
v -1.52985 -0.17470 -0.91053
v -1.39748 -0.33750 -0.91053
v -1.18692 -0.47730 -0.91053
v -0.91250 -0.58457 -0.91053
v -0.59294 -0.65200 -0.91053
v -0.25000 -0.67500 -0.91053
v 0.09294 -0.65200 -0.91053
v 0.41250 -0.58457 -0.91053
v 0.68692 -0.47730 -0.91053
v 0.89748 -0.33750 -0.91053
v 1.02985 -0.17470 -0.91053
v -0.25000 0.00000 -0.94000
v -0.25000 0.00000 -0.94000
v -0.25000 0.00000 -0.94000
v -0.25000 0.00000 -0.94000
v -0.25000 0.00000 -0.94000
v -0.25000 0.00000 -0.94000
v -0.25000 0.00000 -0.94000
v -0.25000 0.00000 -0.94000
v -0.25000 0.00000 -0.94000
v -0.25000 0.00000 -0.94000
v -0.25000 0.00000 -0.94000
v -0.25000 0.00000 -0.94000
v -0.25000 0.00000 -0.94000
v -0.25000 -0.00000 -0.94000
v -0.25000 -0.00000 -0.94000
v -0.25000 -0.00000 -0.94000
v -0.25000 -0.00000 -0.94000
v -0.25000 -0.00000 -0.94000
v -0.25000 -0.00000 -0.94000
v -0.25000 -0.00000 -0.94000
v -0.25000 -0.00000 -0.94000
v -0.25000 -0.00000 -0.94000
v -0.25000 -0.00000 -0.94000
v -0.25000 -0.00000 -0.94000
v 0.65000 -1.36000 1.03000
v 0.65000 -1.36000 1.03000
v 0.65000 -1.36000 1.03000
v 0.65000 -1.36000 1.03000
v 0.65000 -1.36000 1.03000
v 0.65000 -1.36000 1.03000
v 0.65000 -1.36000 1.03000
v 0.65000 -1.36000 1.03000
v 0.65000 -1.36000 1.03000
v 0.65000 -1.36000 1.03000
v 0.65000 -1.36000 1.03000
v 0.65000 -1.36000 1.03000
v 0.65000 -1.36000 1.03000
v 0.65000 -1.36000 1.03000
v 0.65000 -1.36000 1.03000
v 0.65000 -1.36000 1.03000
v 1.01000 -1.36000 0.96569
v 0.98260 -1.33704 0.96569
v 0.90456 -1.31757 0.96569
v 0.78777 -1.30457 0.96569
v 0.65000 -1.30000 0.96569
v 0.51223 -1.30457 0.96569
v 0.39544 -1.31757 0.96569
v 0.31740 -1.33704 0.96569
v 0.29000 -1.36000 0.96569
v 0.31740 -1.38296 0.96569
v 0.39544 -1.40243 0.96569
v 0.51223 -1.41543 0.96569
v 0.65000 -1.42000 0.96569
v 0.78777 -1.41543 0.96569
v 0.90456 -1.40243 0.96569
v 0.98260 -1.38296 0.96569
v 1.27354 -1.36000 0.79000
v 1.22607 -1.32023 0.79000
v 1.09091 -1.28652 0.79000
v 0.88862 -1.26399 0.79000
v 0.65000 -1.25608 0.79000
v 0.41138 -1.26399 0.79000
v 0.20909 -1.28652 0.79000
v 0.07393 -1.32023 0.79000
v 0.02646 -1.36000 0.79000
v 0.07393 -1.39977 0.79000
v 0.20909 -1.43348 0.79000
v 0.41138 -1.45601 0.79000
v 0.65000 -1.46392 0.79000
v 0.88862 -1.45601 0.79000
v 1.09091 -1.43348 0.79000
v 1.22607 -1.39977 0.79000
v 1.37000 -1.36000 0.55000
v 1.31519 -1.31408 0.55000
v 1.15912 -1.27515 0.55000
v 0.92553 -1.24913 0.55000
v 0.65000 -1.24000 0.55000
v 0.37447 -1.24913 0.55000
v 0.14088 -1.27515 0.55000
v -0.01519 -1.31408 0.55000
v -0.07000 -1.36000 0.55000
v -0.01519 -1.40592 0.55000
v 0.14088 -1.44485 0.55000
v 0.37447 -1.47087 0.55000
v 0.65000 -1.48000 0.55000
v 0.92553 -1.47087 0.55000
v 1.15912 -1.44485 0.55000
v 1.31519 -1.40592 0.55000
v 1.27354 -1.36000 0.31000
v 1.22607 -1.32023 0.31000
v 1.09091 -1.28652 0.31000
v 0.88862 -1.26399 0.31000
v 0.65000 -1.25608 0.31000
v 0.41138 -1.26399 0.31000
v 0.20909 -1.28652 0.31000
v 0.07393 -1.32023 0.31000
v 0.02646 -1.36000 0.31000
v 0.07393 -1.39977 0.31000
v 0.20909 -1.43348 0.31000
v 0.41138 -1.45601 0.31000
v 0.65000 -1.46392 0.31000
v 0.88862 -1.45601 0.31000
v 1.09091 -1.43348 0.31000
v 1.22607 -1.39977 0.31000
v 1.01000 -1.36000 0.13431
v 0.98260 -1.33704 0.13431
v 0.90456 -1.31757 0.13431
v 0.78777 -1.30457 0.13431
v 0.65000 -1.30000 0.13431
v 0.51223 -1.30457 0.13431
v 0.39544 -1.31757 0.13431
v 0.31740 -1.33704 0.13431
v 0.29000 -1.36000 0.13431
v 0.31740 -1.38296 0.13431
v 0.39544 -1.40243 0.13431
v 0.51223 -1.41543 0.13431
v 0.65000 -1.42000 0.13431
v 0.78777 -1.41543 0.13431
v 0.90456 -1.40243 0.13431
v 0.98260 -1.38296 0.13431
v 0.65000 -1.36000 0.07000
v 0.65000 -1.36000 0.07000
v 0.65000 -1.36000 0.07000
v 0.65000 -1.36000 0.07000
v 0.65000 -1.36000 0.07000
v 0.65000 -1.36000 0.07000
v 0.65000 -1.36000 0.07000
v 0.65000 -1.36000 0.07000
v 0.65000 -1.36000 0.07000
v 0.65000 -1.36000 0.07000
v 0.65000 -1.36000 0.07000
v 0.65000 -1.36000 0.07000
v 0.65000 -1.36000 0.07000
v 0.65000 -1.36000 0.07000
v 0.65000 -1.36000 0.07000
v 0.65000 -1.36000 0.07000
v 0.65000 1.36000 1.03000
v 0.65000 1.36000 1.03000
v 0.65000 1.36000 1.03000
v 0.65000 1.36000 1.03000
v 0.65000 1.36000 1.03000
v 0.65000 1.36000 1.03000
v 0.65000 1.36000 1.03000
v 0.65000 1.36000 1.03000
v 0.65000 1.36000 1.03000
v 0.65000 1.36000 1.03000
v 0.65000 1.36000 1.03000
v 0.65000 1.36000 1.03000
v 0.65000 1.36000 1.03000
v 0.65000 1.36000 1.03000
v 0.65000 1.36000 1.03000
v 0.65000 1.36000 1.03000
v 1.01000 1.36000 0.96569
v 0.98260 1.38296 0.96569
v 0.90456 1.40243 0.96569
v 0.78777 1.41543 0.96569
v 0.65000 1.42000 0.96569
v 0.51223 1.41543 0.96569
v 0.39544 1.40243 0.96569
v 0.31740 1.38296 0.96569
v 0.29000 1.36000 0.96569
v 0.31740 1.33704 0.96569
v 0.39544 1.31757 0.96569
v 0.51223 1.30457 0.96569
v 0.65000 1.30000 0.96569
v 0.78777 1.30457 0.96569
v 0.90456 1.31757 0.96569
v 0.98260 1.33704 0.96569
v 1.27354 1.36000 0.79000
v 1.22607 1.39977 0.79000
v 1.09091 1.43348 0.79000
v 0.88862 1.45601 0.79000
v 0.65000 1.46392 0.79000
v 0.41138 1.45601 0.79000
v 0.20909 1.43348 0.79000
v 0.07393 1.39977 0.79000
v 0.02646 1.36000 0.79000
v 0.07393 1.32023 0.79000
v 0.20909 1.28652 0.79000
v 0.41138 1.26399 0.79000
v 0.65000 1.25608 0.79000
v 0.88862 1.26399 0.79000
v 1.09091 1.28652 0.79000
v 1.22607 1.32023 0.79000
v 1.37000 1.36000 0.55000
v 1.31519 1.40592 0.55000
v 1.15912 1.44485 0.55000
v 0.92553 1.47087 0.55000
v 0.65000 1.48000 0.55000
v 0.37447 1.47087 0.55000
v 0.14088 1.44485 0.55000
v -0.01519 1.40592 0.55000
v -0.07000 1.36000 0.55000
v -0.01519 1.31408 0.55000
v 0.14088 1.27515 0.55000
v 0.37447 1.24913 0.55000
v 0.65000 1.24000 0.55000
v 0.92553 1.24913 0.55000
v 1.15912 1.27515 0.55000
v 1.31519 1.31408 0.55000
v 1.27354 1.36000 0.31000
v 1.22607 1.39977 0.31000
v 1.09091 1.43348 0.31000
v 0.88862 1.45601 0.31000
v 0.65000 1.46392 0.31000
v 0.41138 1.45601 0.31000
v 0.20909 1.43348 0.31000
v 0.07393 1.39977 0.31000
v 0.02646 1.36000 0.31000
v 0.07393 1.32023 0.31000
v 0.20909 1.28652 0.31000
v 0.41138 1.26399 0.31000
v 0.65000 1.25608 0.31000
v 0.88862 1.26399 0.31000
v 1.09091 1.28652 0.31000
v 1.22607 1.32023 0.31000
v 1.01000 1.36000 0.13431
v 0.98260 1.38296 0.13431
v 0.90456 1.40243 0.13431
v 0.78777 1.41543 0.13431
v 0.65000 1.42000 0.13431
v 0.51223 1.41543 0.13431
v 0.39544 1.40243 0.13431
v 0.31740 1.38296 0.13431
v 0.29000 1.36000 0.13431
v 0.31740 1.33704 0.13431
v 0.39544 1.31757 0.13431
v 0.51223 1.30457 0.13431
v 0.65000 1.30000 0.13431
v 0.78777 1.30457 0.13431
v 0.90456 1.31757 0.13431
v 0.98260 1.33704 0.13431
v 0.65000 1.36000 0.07000
v 0.65000 1.36000 0.07000
v 0.65000 1.36000 0.07000
v 0.65000 1.36000 0.07000
v 0.65000 1.36000 0.07000
v 0.65000 1.36000 0.07000
v 0.65000 1.36000 0.07000
v 0.65000 1.36000 0.07000
v 0.65000 1.36000 0.07000
v 0.65000 1.36000 0.07000
v 0.65000 1.36000 0.07000
v 0.65000 1.36000 0.07000
v 0.65000 1.36000 0.07000
v 0.65000 1.36000 0.07000
v 0.65000 1.36000 0.07000
v 0.65000 1.36000 0.07000
v 1.08000 -1.49000 0.73000
v 1.08000 -1.49000 0.73000
v 1.08000 -1.49000 0.73000
v 1.08000 -1.49000 0.73000
v 1.08000 -1.49000 0.73000
v 1.08000 -1.49000 0.73000
v 1.08000 -1.49000 0.73000
v 1.08000 -1.49000 0.73000
v 1.08000 -1.49000 0.73000
v 1.08000 -1.49000 0.73000
v 1.08000 -1.49000 0.73000
v 1.08000 -1.49000 0.73000
v 1.13500 -1.49000 0.71526
v 1.12763 -1.47500 0.71526
v 1.10750 -1.46402 0.71526
v 1.08000 -1.46000 0.71526
v 1.05250 -1.46402 0.71526
v 1.03237 -1.47500 0.71526
v 1.02500 -1.49000 0.71526
v 1.03237 -1.50500 0.71526
v 1.05250 -1.51598 0.71526
v 1.08000 -1.52000 0.71526
v 1.10750 -1.51598 0.71526
v 1.12763 -1.50500 0.71526
v 1.17526 -1.49000 0.67500
v 1.16250 -1.46402 0.67500
v 1.12763 -1.44500 0.67500
v 1.08000 -1.43804 0.67500
v 1.03237 -1.44500 0.67500
v 0.99750 -1.46402 0.67500
v 0.98474 -1.49000 0.67500
v 0.99750 -1.51598 0.67500
v 1.03237 -1.53500 0.67500
v 1.08000 -1.54196 0.67500
v 1.12763 -1.53500 0.67500
v 1.16250 -1.51598 0.67500
v 1.19000 -1.49000 0.62000
v 1.17526 -1.46000 0.62000
v 1.13500 -1.43804 0.62000
v 1.08000 -1.43000 0.62000
v 1.02500 -1.43804 0.62000
v 0.98474 -1.46000 0.62000
v 0.97000 -1.49000 0.62000
v 0.98474 -1.52000 0.62000
v 1.02500 -1.54196 0.62000
v 1.08000 -1.55000 0.62000
v 1.13500 -1.54196 0.62000
v 1.17526 -1.52000 0.62000
v 1.17526 -1.49000 0.56500
v 1.16250 -1.46402 0.56500
v 1.12763 -1.44500 0.56500
v 1.08000 -1.43804 0.56500
v 1.03237 -1.44500 0.56500
v 0.99750 -1.46402 0.56500
v 0.98474 -1.49000 0.56500
v 0.99750 -1.51598 0.56500
v 1.03237 -1.53500 0.56500
v 1.08000 -1.54196 0.56500
v 1.12763 -1.53500 0.56500
v 1.16250 -1.51598 0.56500
v 1.13500 -1.49000 0.52474
v 1.12763 -1.47500 0.52474
v 1.10750 -1.46402 0.52474
v 1.08000 -1.46000 0.52474
v 1.05250 -1.46402 0.52474
v 1.03237 -1.47500 0.52474
v 1.02500 -1.49000 0.52474
v 1.03237 -1.50500 0.52474
v 1.05250 -1.51598 0.52474
v 1.08000 -1.52000 0.52474
v 1.10750 -1.51598 0.52474
v 1.12763 -1.50500 0.52474
v 1.08000 -1.49000 0.51000
v 1.08000 -1.49000 0.51000
v 1.08000 -1.49000 0.51000
v 1.08000 -1.49000 0.51000
v 1.08000 -1.49000 0.51000
v 1.08000 -1.49000 0.51000
v 1.08000 -1.49000 0.51000
v 1.08000 -1.49000 0.51000
v 1.08000 -1.49000 0.51000
v 1.08000 -1.49000 0.51000
v 1.08000 -1.49000 0.51000
v 1.08000 -1.49000 0.51000
v 1.08000 1.49000 0.73000
v 1.08000 1.49000 0.73000
v 1.08000 1.49000 0.73000
v 1.08000 1.49000 0.73000
v 1.08000 1.49000 0.73000
v 1.08000 1.49000 0.73000
v 1.08000 1.49000 0.73000
v 1.08000 1.49000 0.73000
v 1.08000 1.49000 0.73000
v 1.08000 1.49000 0.73000
v 1.08000 1.49000 0.73000
v 1.08000 1.49000 0.73000
v 1.13500 1.49000 0.71526
v 1.12763 1.50500 0.71526
v 1.10750 1.51598 0.71526
v 1.08000 1.52000 0.71526
v 1.05250 1.51598 0.71526
v 1.03237 1.50500 0.71526
v 1.02500 1.49000 0.71526
v 1.03237 1.47500 0.71526
v 1.05250 1.46402 0.71526
v 1.08000 1.46000 0.71526
v 1.10750 1.46402 0.71526
v 1.12763 1.47500 0.71526
v 1.17526 1.49000 0.67500
v 1.16250 1.51598 0.67500
v 1.12763 1.53500 0.67500
v 1.08000 1.54196 0.67500
v 1.03237 1.53500 0.67500
v 0.99750 1.51598 0.67500
v 0.98474 1.49000 0.67500
v 0.99750 1.46402 0.67500
v 1.03237 1.44500 0.67500
v 1.08000 1.43804 0.67500
v 1.12763 1.44500 0.67500
v 1.16250 1.46402 0.67500
v 1.19000 1.49000 0.62000
v 1.17526 1.52000 0.62000
v 1.13500 1.54196 0.62000
v 1.08000 1.55000 0.62000
v 1.02500 1.54196 0.62000
v 0.98474 1.52000 0.62000
v 0.97000 1.49000 0.62000
v 0.98474 1.46000 0.62000
v 1.02500 1.43804 0.62000
v 1.08000 1.43000 0.62000
v 1.13500 1.43804 0.62000
v 1.17526 1.46000 0.62000
v 1.17526 1.49000 0.56500
v 1.16250 1.51598 0.56500
v 1.12763 1.53500 0.56500
v 1.08000 1.54196 0.56500
v 1.03237 1.53500 0.56500
v 0.99750 1.51598 0.56500
v 0.98474 1.49000 0.56500
v 0.99750 1.46402 0.56500
v 1.03237 1.44500 0.56500
v 1.08000 1.43804 0.56500
v 1.12763 1.44500 0.56500
v 1.16250 1.46402 0.56500
v 1.13500 1.49000 0.52474
v 1.12763 1.50500 0.52474
v 1.10750 1.51598 0.52474
v 1.08000 1.52000 0.52474
v 1.05250 1.51598 0.52474
v 1.03237 1.50500 0.52474
v 1.02500 1.49000 0.52474
v 1.03237 1.47500 0.52474
v 1.05250 1.46402 0.52474
v 1.08000 1.46000 0.52474
v 1.10750 1.46402 0.52474
v 1.12763 1.47500 0.52474
v 1.08000 1.49000 0.51000
v 1.08000 1.49000 0.51000
v 1.08000 1.49000 0.51000
v 1.08000 1.49000 0.51000
v 1.08000 1.49000 0.51000
v 1.08000 1.49000 0.51000
v 1.08000 1.49000 0.51000
v 1.08000 1.49000 0.51000
v 1.08000 1.49000 0.51000
v 1.08000 1.49000 0.51000
v 1.08000 1.49000 0.51000
v 1.08000 1.49000 0.51000
v 3.42000 -0.03000 0.15000
v 3.42000 -0.03000 0.15000
v 3.42000 -0.03000 0.15000
v 3.42000 -0.03000 0.15000
v 3.42000 -0.03000 0.15000
v 3.42000 -0.03000 0.15000
v 3.42000 -0.03000 0.15000
v 3.42000 -0.03000 0.15000
v 3.42000 -0.03000 0.15000
v 3.42000 -0.03000 0.15000
v 3.42000 -0.03000 0.15000
v 3.42000 -0.03000 0.15000
v 3.59634 -0.03000 0.13663
v 3.57271 -0.01531 0.13663
v 3.50817 -0.00455 0.13663
v 3.42000 -0.00061 0.13663
v 3.33183 -0.00455 0.13663
v 3.26729 -0.01531 0.13663
v 3.24366 -0.03000 0.13663
v 3.26729 -0.04469 0.13663
v 3.33183 -0.05545 0.13663
v 3.42000 -0.05939 0.13663
v 3.50817 -0.05545 0.13663
v 3.57271 -0.04469 0.13663
v 3.70532 -0.03000 0.10163
v 3.66709 -0.00622 0.10163
v 3.56266 0.01118 0.10163
v 3.42000 0.01755 0.10163
v 3.27734 0.01118 0.10163
v 3.17291 -0.00622 0.10163
v 3.13468 -0.03000 0.10163
v 3.17291 -0.05378 0.10163
v 3.27734 -0.07118 0.10163
v 3.42000 -0.07755 0.10163
v 3.56266 -0.07118 0.10163
v 3.66709 -0.05378 0.10163
v 3.70532 -0.03000 0.05837
v 3.66709 -0.00622 0.05837
v 3.56266 0.01118 0.05837
v 3.42000 0.01755 0.05837
v 3.27734 0.01118 0.05837
v 3.17291 -0.00622 0.05837
v 3.13468 -0.03000 0.05837
v 3.17291 -0.05378 0.05837
v 3.27734 -0.07118 0.05837
v 3.42000 -0.07755 0.05837
v 3.56266 -0.07118 0.05837
v 3.66709 -0.05378 0.05837
v 3.59634 -0.03000 0.02337
v 3.57271 -0.01531 0.02337
v 3.50817 -0.00455 0.02337
v 3.42000 -0.00061 0.02337
v 3.33183 -0.00455 0.02337
v 3.26729 -0.01531 0.02337
v 3.24366 -0.03000 0.02337
v 3.26729 -0.04469 0.02337
v 3.33183 -0.05545 0.02337
v 3.42000 -0.05939 0.02337
v 3.50817 -0.05545 0.02337
v 3.57271 -0.04469 0.02337
v 3.42000 -0.03000 0.01000
v 3.42000 -0.03000 0.01000
v 3.42000 -0.03000 0.01000
v 3.42000 -0.03000 0.01000
v 3.42000 -0.03000 0.01000
v 3.42000 -0.03000 0.01000
v 3.42000 -0.03000 0.01000
v 3.42000 -0.03000 0.01000
v 3.42000 -0.03000 0.01000
v 3.42000 -0.03000 0.01000
v 3.42000 -0.03000 0.01000
v 3.42000 -0.03000 0.01000
v -0.65000 -0.35000 1.05000
v 0.00000 -0.25000 1.05000
v 0.55000 0.00000 1.05000
v 0.10000 0.35000 1.05000
v -0.55000 0.28000 1.05000
v -0.65000 -0.35000 1.75000
v 0.00000 -0.25000 1.75000
v 0.55000 0.00000 1.75000
v 0.10000 0.35000 1.75000
v -0.55000 0.28000 1.75000
v 0.20000 -1.10000 -0.15000
v -0.40000 -1.35000 -0.15000
v -1.65000 -2.15000 -0.15000
v -1.25000 -1.00000 -0.15000
v 0.20000 -1.10000 0.15000
v -0.40000 -1.35000 0.15000
v -1.65000 -2.15000 0.15000
v -1.25000 -1.00000 0.15000
v 0.20000 1.10000 -0.15000
v -0.40000 1.35000 -0.15000
v -1.65000 2.15000 -0.15000
v -1.25000 1.00000 -0.15000
v 0.20000 1.10000 0.15000
v -0.40000 1.35000 0.15000
v -1.65000 2.15000 0.15000
v -1.25000 1.00000 0.15000
v -3.45000 0.00000 0.65000
v -3.45000 0.00000 0.65000
v -3.45000 0.00000 0.65000
v -3.45000 0.00000 0.65000
v -3.45000 0.00000 0.65000
v -3.45000 0.00000 0.65000
v -3.45000 0.00000 0.65000
v -3.45000 0.00000 0.65000
v -3.45000 0.00000 0.65000
v -3.45000 0.00000 0.65000
v -3.45000 0.00000 0.65000
v -3.45000 0.00000 0.65000
v -3.45000 0.00000 0.65000
v -3.45000 0.00000 0.65000
v -3.45000 0.00000 0.65000
v -3.45000 0.00000 0.65000
v -3.45000 0.00000 0.65000
v -3.45000 0.00000 0.65000
v -3.06732 0.00000 0.60052
v -3.09040 0.09816 0.60052
v -3.15685 0.18449 0.60052
v -3.25866 0.24856 0.60052
v -3.38355 0.28265 0.60052
v -3.51645 0.28265 0.60052
v -3.64134 0.24856 0.60052
v -3.74315 0.18449 0.60052
v -3.80960 0.09816 0.60052
v -3.83268 0.00000 0.60052
v -3.80960 -0.09816 0.60052
v -3.74315 -0.18449 0.60052
v -3.64134 -0.24856 0.60052
v -3.51645 -0.28265 0.60052
v -3.38355 -0.28265 0.60052
v -3.25866 -0.24856 0.60052
v -3.15685 -0.18449 0.60052
v -3.09040 -0.09816 0.60052
v -2.74289 0.00000 0.45962
v -2.78554 0.18138 0.45962
v -2.90832 0.34089 0.45962
v -3.09645 0.45928 0.45962
v -3.32721 0.52227 0.45962
v -3.57279 0.52227 0.45962
v -3.80355 0.45928 0.45962
v -3.99168 0.34089 0.45962
v -4.11446 0.18138 0.45962
v -4.15711 0.00000 0.45962
v -4.11446 -0.18138 0.45962
v -3.99168 -0.34089 0.45962
v -3.80355 -0.45928 0.45962
v -3.57279 -0.52227 0.45962
v -3.32721 -0.52227 0.45962
v -3.09645 -0.45928 0.45962
v -2.90832 -0.34089 0.45962
v -2.78554 -0.18138 0.45962
v -2.52612 0.00000 0.24874
v -2.58184 0.23699 0.24874
v -2.74227 0.44539 0.24874
v -2.98806 0.60008 0.24874
v -3.28957 0.68238 0.24874
v -3.61043 0.68238 0.24874
v -3.91194 0.60008 0.24874
v -4.15773 0.44539 0.24874
v -4.31816 0.23699 0.24874
v -4.37388 0.00000 0.24874
v -4.31816 -0.23699 0.24874
v -4.15773 -0.44539 0.24874
v -3.91194 -0.60008 0.24874
v -3.61043 -0.68238 0.24874
v -3.28957 -0.68238 0.24874
v -2.98806 -0.60008 0.24874
v -2.74227 -0.44539 0.24874
v -2.58184 -0.23699 0.24874
v -2.45000 0.00000 0.00000
v -2.51031 0.25652 0.00000
v -2.68396 0.48209 0.00000
v -2.95000 0.64952 0.00000
v -3.27635 0.73861 0.00000
v -3.62365 0.73861 0.00000
v -3.95000 0.64952 0.00000
v -4.21604 0.48209 0.00000
v -4.38969 0.25652 0.00000
v -4.45000 0.00000 0.00000
v -4.38969 -0.25652 0.00000
v -4.21604 -0.48209 0.00000
v -3.95000 -0.64952 0.00000
v -3.62365 -0.73861 0.00000
v -3.27635 -0.73861 0.00000
v -2.95000 -0.64952 0.00000
v -2.68396 -0.48209 0.00000
v -2.51031 -0.25652 0.00000
v -2.52612 0.00000 -0.24874
v -2.58184 0.23699 -0.24874
v -2.74227 0.44539 -0.24874
v -2.98806 0.60008 -0.24874
v -3.28957 0.68238 -0.24874
v -3.61043 0.68238 -0.24874
v -3.91194 0.60008 -0.24874
v -4.15773 0.44539 -0.24874
v -4.31816 0.23699 -0.24874
v -4.37388 0.00000 -0.24874
v -4.31816 -0.23699 -0.24874
v -4.15773 -0.44539 -0.24874
v -3.91194 -0.60008 -0.24874
v -3.61043 -0.68238 -0.24874
v -3.28957 -0.68238 -0.24874
v -2.98806 -0.60008 -0.24874
v -2.74227 -0.44539 -0.24874
v -2.58184 -0.23699 -0.24874
v -2.74289 0.00000 -0.45962
v -2.78554 0.18138 -0.45962
v -2.90832 0.34089 -0.45962
v -3.09645 0.45928 -0.45962
v -3.32721 0.52227 -0.45962
v -3.57279 0.52227 -0.45962
v -3.80355 0.45928 -0.45962
v -3.99168 0.34089 -0.45962
v -4.11446 0.18138 -0.45962
v -4.15711 0.00000 -0.45962
v -4.11446 -0.18138 -0.45962
v -3.99168 -0.34089 -0.45962
v -3.80355 -0.45928 -0.45962
v -3.57279 -0.52227 -0.45962
v -3.32721 -0.52227 -0.45962
v -3.09645 -0.45928 -0.45962
v -2.90832 -0.34089 -0.45962
v -2.78554 -0.18138 -0.45962
v -3.06732 0.00000 -0.60052
v -3.09040 0.09816 -0.60052
v -3.15685 0.18449 -0.60052
v -3.25866 0.24856 -0.60052
v -3.38355 0.28265 -0.60052
v -3.51645 0.28265 -0.60052
v -3.64134 0.24856 -0.60052
v -3.74315 0.18449 -0.60052
v -3.80960 0.09816 -0.60052
v -3.83268 0.00000 -0.60052
v -3.80960 -0.09816 -0.60052
v -3.74315 -0.18449 -0.60052
v -3.64134 -0.24856 -0.60052
v -3.51645 -0.28265 -0.60052
v -3.38355 -0.28265 -0.60052
v -3.25866 -0.24856 -0.60052
v -3.15685 -0.18449 -0.60052
v -3.09040 -0.09816 -0.60052
v -3.45000 0.00000 -0.65000
v -3.45000 0.00000 -0.65000
v -3.45000 0.00000 -0.65000
v -3.45000 0.00000 -0.65000
v -3.45000 0.00000 -0.65000
v -3.45000 0.00000 -0.65000
v -3.45000 0.00000 -0.65000
v -3.45000 0.00000 -0.65000
v -3.45000 0.00000 -0.65000
v -3.45000 0.00000 -0.65000
v -3.45000 -0.00000 -0.65000
v -3.45000 -0.00000 -0.65000
v -3.45000 -0.00000 -0.65000
v -3.45000 -0.00000 -0.65000
v -3.45000 -0.00000 -0.65000
v -3.45000 -0.00000 -0.65000
v -3.45000 -0.00000 -0.65000
v -3.45000 -0.00000 -0.65000
v -4.00000 0.00000 -0.18000
v -4.90000 -1.55000 -0.18000
v -3.75000 -0.75000 -0.18000
v -3.15000 -0.15000 -0.18000
v -3.45000 0.05000 -0.18000
v -4.00000 0.00000 0.18000
v -4.90000 -1.55000 0.18000
v -3.75000 -0.75000 0.18000
v -3.15000 -0.15000 0.18000
v -3.45000 0.05000 0.18000
v -4.00000 0.00000 -0.18000
v -4.90000 1.55000 -0.18000
v -3.75000 0.75000 -0.18000
v -3.15000 0.15000 -0.18000
v -3.45000 -0.05000 -0.18000
v -4.00000 0.00000 0.18000
v -4.90000 1.55000 0.18000
v -3.75000 0.75000 0.18000
v -3.15000 0.15000 0.18000
v -3.45000 -0.05000 0.18000
v 3.00000 0.00000 -0.14000
v 3.00000 0.00000 -0.14000
v 3.00000 0.00000 -0.14000
v 3.00000 0.00000 -0.14000
v 3.00000 0.00000 -0.14000
v 3.00000 0.00000 -0.14000
v 3.00000 0.00000 -0.14000
v 3.00000 0.00000 -0.14000
v 3.00000 0.00000 -0.14000
v 3.00000 0.00000 -0.14000
v 3.00000 0.00000 -0.14000
v 3.00000 0.00000 -0.14000
v 3.00000 0.00000 -0.14000
v 3.00000 0.00000 -0.14000
v 3.00000 0.00000 -0.14000
v 3.00000 0.00000 -0.14000
v 3.00000 0.00000 -0.14000
v 3.00000 0.00000 -0.14000
v 3.00000 0.00000 -0.14000
v 3.00000 0.00000 -0.14000
v 3.36880 0.00000 -0.17763
v 3.35075 0.13408 -0.17763
v 3.29837 0.25503 -0.17763
v 3.21678 0.35102 -0.17763
v 3.11397 0.41265 -0.17763
v 3.00000 0.43388 -0.17763
v 2.88603 0.41265 -0.17763
v 2.78322 0.35102 -0.17763
v 2.70163 0.25503 -0.17763
v 2.64925 0.13408 -0.17763
v 2.63120 0.00000 -0.17763
v 2.64925 -0.13408 -0.17763
v 2.70163 -0.25503 -0.17763
v 2.78322 -0.35102 -0.17763
v 2.88603 -0.41265 -0.17763
v 3.00000 -0.43388 -0.17763
v 3.11397 -0.41265 -0.17763
v 3.21678 -0.35102 -0.17763
v 3.29837 -0.25503 -0.17763
v 3.35075 -0.13408 -0.17763
v 3.66456 0.00000 -0.28307
v 3.63203 0.24160 -0.28307
v 3.53764 0.45955 -0.28307
v 3.39062 0.63251 -0.28307
v 3.20536 0.74357 -0.28307
v 3.00000 0.78183 -0.28307
v 2.79464 0.74357 -0.28307
v 2.60938 0.63251 -0.28307
v 2.46236 0.45955 -0.28307
v 2.36797 0.24160 -0.28307
v 2.33544 0.00000 -0.28307
v 2.36797 -0.24160 -0.28307
v 2.46236 -0.45955 -0.28307
v 2.60938 -0.63251 -0.28307
v 2.79464 -0.74357 -0.28307
v 3.00000 -0.78183 -0.28307
v 3.20536 -0.74357 -0.28307
v 3.39062 -0.63251 -0.28307
v 3.53764 -0.45955 -0.28307
v 3.63203 -0.24160 -0.28307
v 3.82869 0.00000 -0.43544
v 3.78813 0.30127 -0.43544
v 3.67042 0.57305 -0.43544
v 3.48709 0.78873 -0.43544
v 3.25608 0.92721 -0.43544
v 3.00000 0.97493 -0.43544
v 2.74392 0.92721 -0.43544
v 2.51291 0.78873 -0.43544
v 2.32958 0.57305 -0.43544
v 2.21187 0.30127 -0.43544
v 2.17131 0.00000 -0.43544
v 2.21187 -0.30127 -0.43544
v 2.32958 -0.57305 -0.43544
v 2.51291 -0.78873 -0.43544
v 2.74392 -0.92721 -0.43544
v 3.00000 -0.97493 -0.43544
v 3.25608 -0.92721 -0.43544
v 3.48709 -0.78873 -0.43544
v 3.67042 -0.57305 -0.43544
v 3.78813 -0.30127 -0.43544
v 3.82869 0.00000 -0.60456
v 3.78813 0.30127 -0.60456
v 3.67042 0.57305 -0.60456
v 3.48709 0.78873 -0.60456
v 3.25608 0.92721 -0.60456
v 3.00000 0.97493 -0.60456
v 2.74392 0.92721 -0.60456
v 2.51291 0.78873 -0.60456
v 2.32958 0.57305 -0.60456
v 2.21187 0.30127 -0.60456
v 2.17131 0.00000 -0.60456
v 2.21187 -0.30127 -0.60456
v 2.32958 -0.57305 -0.60456
v 2.51291 -0.78873 -0.60456
v 2.74392 -0.92721 -0.60456
v 3.00000 -0.97493 -0.60456
v 3.25608 -0.92721 -0.60456
v 3.48709 -0.78873 -0.60456
v 3.67042 -0.57305 -0.60456
v 3.78813 -0.30127 -0.60456
v 3.66456 0.00000 -0.75693
v 3.63203 0.24160 -0.75693
v 3.53764 0.45955 -0.75693
v 3.39062 0.63251 -0.75693
v 3.20536 0.74357 -0.75693
v 3.00000 0.78183 -0.75693
v 2.79464 0.74357 -0.75693
v 2.60938 0.63251 -0.75693
v 2.46236 0.45955 -0.75693
v 2.36797 0.24160 -0.75693
v 2.33544 0.00000 -0.75693
v 2.36797 -0.24160 -0.75693
v 2.46236 -0.45955 -0.75693
v 2.60938 -0.63251 -0.75693
v 2.79464 -0.74357 -0.75693
v 3.00000 -0.78183 -0.75693
v 3.20536 -0.74357 -0.75693
v 3.39062 -0.63251 -0.75693
v 3.53764 -0.45955 -0.75693
v 3.63203 -0.24160 -0.75693
v 3.36880 0.00000 -0.86237
v 3.35075 0.13408 -0.86237
v 3.29837 0.25503 -0.86237
v 3.21678 0.35102 -0.86237
v 3.11397 0.41265 -0.86237
v 3.00000 0.43388 -0.86237
v 2.88603 0.41265 -0.86237
v 2.78322 0.35102 -0.86237
v 2.70163 0.25503 -0.86237
v 2.64925 0.13408 -0.86237
v 2.63120 0.00000 -0.86237
v 2.64925 -0.13408 -0.86237
v 2.70163 -0.25503 -0.86237
v 2.78322 -0.35102 -0.86237
v 2.88603 -0.41265 -0.86237
v 3.00000 -0.43388 -0.86237
v 3.11397 -0.41265 -0.86237
v 3.21678 -0.35102 -0.86237
v 3.29837 -0.25503 -0.86237
v 3.35075 -0.13408 -0.86237
v 3.00000 0.00000 -0.90000
v 3.00000 0.00000 -0.90000
v 3.00000 0.00000 -0.90000
v 3.00000 0.00000 -0.90000
v 3.00000 0.00000 -0.90000
v 3.00000 0.00000 -0.90000
v 3.00000 0.00000 -0.90000
v 3.00000 0.00000 -0.90000
v 3.00000 0.00000 -0.90000
v 3.00000 0.00000 -0.90000
v 3.00000 0.00000 -0.90000
v 3.00000 -0.00000 -0.90000
v 3.00000 -0.00000 -0.90000
v 3.00000 -0.00000 -0.90000
v 3.00000 -0.00000 -0.90000
v 3.00000 -0.00000 -0.90000
v 3.00000 -0.00000 -0.90000
v 3.00000 -0.00000 -0.90000
v 3.00000 -0.00000 -0.90000
v 3.00000 -0.00000 -0.90000
usemtl BLACK
f 1 2 26 25
f 2 3 27 26
f 3 4 28 27
f 4 5 29 28
f 5 6 30 29
f 6 7 31 30
f 7 8 32 31
f 8 9 33 32
f 9 10 34 33
f 10 11 35 34
f 11 12 36 35
f 12 13 37 36
f 13 14 38 37
f 14 15 39 38
f 15 16 40 39
f 16 17 41 40
f 17 18 42 41
f 18 19 43 42
f 19 20 44 43
f 20 21 45 44
f 21 22 46 45
f 22 23 47 46
f 23 24 48 47
f 24 1 25 48
f 25 26 50 49
f 26 27 51 50
f 27 28 52 51
f 28 29 53 52
f 29 30 54 53
f 30 31 55 54
f 31 32 56 55
f 32 33 57 56
f 33 34 58 57
f 34 35 59 58
f 35 36 60 59
f 36 37 61 60
f 37 38 62 61
f 38 39 63 62
f 39 40 64 63
f 40 41 65 64
f 41 42 66 65
f 42 43 67 66
f 43 44 68 67
f 44 45 69 68
f 45 46 70 69
f 46 47 71 70
f 47 48 72 71
f 48 25 49 72
f 49 50 74 73
f 50 51 75 74
f 51 52 76 75
f 52 53 77 76
f 53 54 78 77
f 54 55 79 78
f 55 56 80 79
f 56 57 81 80
f 57 58 82 81
f 58 59 83 82
f 59 60 84 83
f 60 61 85 84
f 61 62 86 85
f 62 63 87 86
f 63 64 88 87
f 64 65 89 88
f 65 66 90 89
f 66 67 91 90
f 67 68 92 91
f 68 69 93 92
f 69 70 94 93
f 70 71 95 94
f 71 72 96 95
f 72 49 73 96
f 73 74 98 97
f 74 75 99 98
f 75 76 100 99
f 76 77 101 100
f 77 78 102 101
f 78 79 103 102
f 79 80 104 103
f 80 81 105 104
f 81 82 106 105
f 82 83 107 106
f 83 84 108 107
f 84 85 109 108
f 85 86 110 109
f 86 87 111 110
f 87 88 112 111
f 88 89 113 112
f 89 90 114 113
f 90 91 115 114
f 91 92 116 115
f 92 93 117 116
f 93 94 118 117
f 94 95 119 118
f 95 96 120 119
f 96 73 97 120
f 97 98 122 121
f 98 99 123 122
f 99 100 124 123
f 100 101 125 124
f 101 102 126 125
f 102 103 127 126
f 103 104 128 127
f 104 105 129 128
f 105 106 130 129
f 106 107 131 130
f 107 108 132 131
f 108 109 133 132
f 109 110 134 133
f 110 111 135 134
f 111 112 136 135
f 112 113 137 136
f 113 114 138 137
f 114 115 139 138
f 115 116 140 139
f 116 117 141 140
f 117 118 142 141
f 118 119 143 142
f 119 120 144 143
f 120 97 121 144
f 121 122 146 145
f 122 123 147 146
f 123 124 148 147
f 124 125 149 148
f 125 126 150 149
f 126 127 151 150
f 127 128 152 151
f 128 129 153 152
f 129 130 154 153
f 130 131 155 154
f 131 132 156 155
f 132 133 157 156
f 133 134 158 157
f 134 135 159 158
f 135 136 160 159
f 136 137 161 160
f 137 138 162 161
f 138 139 163 162
f 139 140 164 163
f 140 141 165 164
f 141 142 166 165
f 142 143 167 166
f 143 144 168 167
f 144 121 145 168
f 145 146 170 169
f 146 147 171 170
f 147 148 172 171
f 148 149 173 172
f 149 150 174 173
f 150 151 175 174
f 151 152 176 175
f 152 153 177 176
f 153 154 178 177
f 154 155 179 178
f 155 156 180 179
f 156 157 181 180
f 157 158 182 181
f 158 159 183 182
f 159 160 184 183
f 160 161 185 184
f 161 162 186 185
f 162 163 187 186
f 163 164 188 187
f 164 165 189 188
f 165 166 190 189
f 166 167 191 190
f 167 168 192 191
f 168 145 169 192
f 169 170 194 193
f 170 171 195 194
f 171 172 196 195
f 172 173 197 196
f 173 174 198 197
f 174 175 199 198
f 175 176 200 199
f 176 177 201 200
f 177 178 202 201
f 178 179 203 202
f 179 180 204 203
f 180 181 205 204
f 181 182 206 205
f 182 183 207 206
f 183 184 208 207
f 184 185 209 208
f 185 186 210 209
f 186 187 211 210
f 187 188 212 211
f 188 189 213 212
f 189 190 214 213
f 190 191 215 214
f 191 192 216 215
f 192 169 193 216
f 193 194 218 217
f 194 195 219 218
f 195 196 220 219
f 196 197 221 220
f 197 198 222 221
f 198 199 223 222
f 199 200 224 223
f 200 201 225 224
f 201 202 226 225
f 202 203 227 226
f 203 204 228 227
f 204 205 229 228
f 205 206 230 229
f 206 207 231 230
f 207 208 232 231
f 208 209 233 232
f 209 210 234 233
f 210 211 235 234
f 211 212 236 235
f 212 213 237 236
f 213 214 238 237
f 214 215 239 238
f 215 216 240 239
f 216 193 217 240
f 217 218 242 241
f 218 219 243 242
f 219 220 244 243
f 220 221 245 244
f 221 222 246 245
f 222 223 247 246
f 223 224 248 247
f 224 225 249 248
f 225 226 250 249
f 226 227 251 250
f 227 228 252 251
f 228 229 253 252
f 229 230 254 253
f 230 231 255 254
f 231 232 256 255
f 232 233 257 256
f 233 234 258 257
f 234 235 259 258
f 235 236 260 259
f 236 237 261 260
f 237 238 262 261
f 238 239 263 262
f 239 240 264 263
f 240 217 241 264
f 241 242 266 265
f 242 243 267 266
f 243 244 268 267
f 244 245 269 268
f 245 246 270 269
f 246 247 271 270
f 247 248 272 271
f 248 249 273 272
f 249 250 274 273
f 250 251 275 274
f 251 252 276 275
f 252 253 277 276
f 253 254 278 277
f 254 255 279 278
f 255 256 280 279
f 256 257 281 280
f 257 258 282 281
f 258 259 283 282
f 259 260 284 283
f 260 261 285 284
f 261 262 286 285
f 262 263 287 286
f 263 264 288 287
f 264 241 265 288
f 265 266 290 289
f 266 267 291 290
f 267 268 292 291
f 268 269 293 292
f 269 270 294 293
f 270 271 295 294
f 271 272 296 295
f 272 273 297 296
f 273 274 298 297
f 274 275 299 298
f 275 276 300 299
f 276 277 301 300
f 277 278 302 301
f 278 279 303 302
f 279 280 304 303
f 280 281 305 304
f 281 282 306 305
f 282 283 307 306
f 283 284 308 307
f 284 285 309 308
f 285 286 310 309
f 286 287 311 310
f 287 288 312 311
f 288 265 289 312
usemtl WHITE
f 313 314 338 337
f 314 315 339 338
f 315 316 340 339
f 316 317 341 340
f 317 318 342 341
f 318 319 343 342
f 319 320 344 343
f 320 321 345 344
f 321 322 346 345
f 322 323 347 346
f 323 324 348 347
f 324 325 349 348
f 325 326 350 349
f 326 327 351 350
f 327 328 352 351
f 328 329 353 352
f 329 330 354 353
f 330 331 355 354
f 331 332 356 355
f 332 333 357 356
f 333 334 358 357
f 334 335 359 358
f 335 336 360 359
f 336 313 337 360
f 337 338 362 361
f 338 339 363 362
f 339 340 364 363
f 340 341 365 364
f 341 342 366 365
f 342 343 367 366
f 343 344 368 367
f 344 345 369 368
f 345 346 370 369
f 346 347 371 370
f 347 348 372 371
f 348 349 373 372
f 349 350 374 373
f 350 351 375 374
f 351 352 376 375
f 352 353 377 376
f 353 354 378 377
f 354 355 379 378
f 355 356 380 379
f 356 357 381 380
f 357 358 382 381
f 358 359 383 382
f 359 360 384 383
f 360 337 361 384
f 361 362 386 385
f 362 363 387 386
f 363 364 388 387
f 364 365 389 388
f 365 366 390 389
f 366 367 391 390
f 367 368 392 391
f 368 369 393 392
f 369 370 394 393
f 370 371 395 394
f 371 372 396 395
f 372 373 397 396
f 373 374 398 397
f 374 375 399 398
f 375 376 400 399
f 376 377 401 400
f 377 378 402 401
f 378 379 403 402
f 379 380 404 403
f 380 381 405 404
f 381 382 406 405
f 382 383 407 406
f 383 384 408 407
f 384 361 385 408
f 385 386 410 409
f 386 387 411 410
f 387 388 412 411
f 388 389 413 412
f 389 390 414 413
f 390 391 415 414
f 391 392 416 415
f 392 393 417 416
f 393 394 418 417
f 394 395 419 418
f 395 396 420 419
f 396 397 421 420
f 397 398 422 421
f 398 399 423 422
f 399 400 424 423
f 400 401 425 424
f 401 402 426 425
f 402 403 427 426
f 403 404 428 427
f 404 405 429 428
f 405 406 430 429
f 406 407 431 430
f 407 408 432 431
f 408 385 409 432
f 409 410 434 433
f 410 411 435 434
f 411 412 436 435
f 412 413 437 436
f 413 414 438 437
f 414 415 439 438
f 415 416 440 439
f 416 417 441 440
f 417 418 442 441
f 418 419 443 442
f 419 420 444 443
f 420 421 445 444
f 421 422 446 445
f 422 423 447 446
f 423 424 448 447
f 424 425 449 448
f 425 426 450 449
f 426 427 451 450
f 427 428 452 451
f 428 429 453 452
f 429 430 454 453
f 430 431 455 454
f 431 432 456 455
f 432 409 433 456
f 433 434 458 457
f 434 435 459 458
f 435 436 460 459
f 436 437 461 460
f 437 438 462 461
f 438 439 463 462
f 439 440 464 463
f 440 441 465 464
f 441 442 466 465
f 442 443 467 466
f 443 444 468 467
f 444 445 469 468
f 445 446 470 469
f 446 447 471 470
f 447 448 472 471
f 448 449 473 472
f 449 450 474 473
f 450 451 475 474
f 451 452 476 475
f 452 453 477 476
f 453 454 478 477
f 454 455 479 478
f 455 456 480 479
f 456 433 457 480
f 481 482 498 497
f 482 483 499 498
f 483 484 500 499
f 484 485 501 500
f 485 486 502 501
f 486 487 503 502
f 487 488 504 503
f 488 489 505 504
f 489 490 506 505
f 490 491 507 506
f 491 492 508 507
f 492 493 509 508
f 493 494 510 509
f 494 495 511 510
f 495 496 512 511
f 496 481 497 512
f 497 498 514 513
f 498 499 515 514
f 499 500 516 515
f 500 501 517 516
f 501 502 518 517
f 502 503 519 518
f 503 504 520 519
f 504 505 521 520
f 505 506 522 521
f 506 507 523 522
f 507 508 524 523
f 508 509 525 524
f 509 510 526 525
f 510 511 527 526
f 511 512 528 527
f 512 497 513 528
f 513 514 530 529
f 514 515 531 530
f 515 516 532 531
f 516 517 533 532
f 517 518 534 533
f 518 519 535 534
f 519 520 536 535
f 520 521 537 536
f 521 522 538 537
f 522 523 539 538
f 523 524 540 539
f 524 525 541 540
f 525 526 542 541
f 526 527 543 542
f 527 528 544 543
f 528 513 529 544
f 529 530 546 545
f 530 531 547 546
f 531 532 548 547
f 532 533 549 548
f 533 534 550 549
f 534 535 551 550
f 535 536 552 551
f 536 537 553 552
f 537 538 554 553
f 538 539 555 554
f 539 540 556 555
f 540 541 557 556
f 541 542 558 557
f 542 543 559 558
f 543 544 560 559
f 544 529 545 560
f 545 546 562 561
f 546 547 563 562
f 547 548 564 563
f 548 549 565 564
f 549 550 566 565
f 550 551 567 566
f 551 552 568 567
f 552 553 569 568
f 553 554 570 569
f 554 555 571 570
f 555 556 572 571
f 556 557 573 572
f 557 558 574 573
f 558 559 575 574
f 559 560 576 575
f 560 545 561 576
f 561 562 578 577
f 562 563 579 578
f 563 564 580 579
f 564 565 581 580
f 565 566 582 581
f 566 567 583 582
f 567 568 584 583
f 568 569 585 584
f 569 570 586 585
f 570 571 587 586
f 571 572 588 587
f 572 573 589 588
f 573 574 590 589
f 574 575 591 590
f 575 576 592 591
f 576 561 577 592
f 593 594 610 609
f 594 595 611 610
f 595 596 612 611
f 596 597 613 612
f 597 598 614 613
f 598 599 615 614
f 599 600 616 615
f 600 601 617 616
f 601 602 618 617
f 602 603 619 618
f 603 604 620 619
f 604 605 621 620
f 605 606 622 621
f 606 607 623 622
f 607 608 624 623
f 608 593 609 624
f 609 610 626 625
f 610 611 627 626
f 611 612 628 627
f 612 613 629 628
f 613 614 630 629
f 614 615 631 630
f 615 616 632 631
f 616 617 633 632
f 617 618 634 633
f 618 619 635 634
f 619 620 636 635
f 620 621 637 636
f 621 622 638 637
f 622 623 639 638
f 623 624 640 639
f 624 609 625 640
f 625 626 642 641
f 626 627 643 642
f 627 628 644 643
f 628 629 645 644
f 629 630 646 645
f 630 631 647 646
f 631 632 648 647
f 632 633 649 648
f 633 634 650 649
f 634 635 651 650
f 635 636 652 651
f 636 637 653 652
f 637 638 654 653
f 638 639 655 654
f 639 640 656 655
f 640 625 641 656
f 641 642 658 657
f 642 643 659 658
f 643 644 660 659
f 644 645 661 660
f 645 646 662 661
f 646 647 663 662
f 647 648 664 663
f 648 649 665 664
f 649 650 666 665
f 650 651 667 666
f 651 652 668 667
f 652 653 669 668
f 653 654 670 669
f 654 655 671 670
f 655 656 672 671
f 656 641 657 672
f 657 658 674 673
f 658 659 675 674
f 659 660 676 675
f 660 661 677 676
f 661 662 678 677
f 662 663 679 678
f 663 664 680 679
f 664 665 681 680
f 665 666 682 681
f 666 667 683 682
f 667 668 684 683
f 668 669 685 684
f 669 670 686 685
f 670 671 687 686
f 671 672 688 687
f 672 657 673 688
f 673 674 690 689
f 674 675 691 690
f 675 676 692 691
f 676 677 693 692
f 677 678 694 693
f 678 679 695 694
f 679 680 696 695
f 680 681 697 696
f 681 682 698 697
f 682 683 699 698
f 683 684 700 699
f 684 685 701 700
f 685 686 702 701
f 686 687 703 702
f 687 688 704 703
f 688 673 689 704
usemtl BLACK
f 705 706 718 717
f 706 707 719 718
f 707 708 720 719
f 708 709 721 720
f 709 710 722 721
f 710 711 723 722
f 711 712 724 723
f 712 713 725 724
f 713 714 726 725
f 714 715 727 726
f 715 716 728 727
f 716 705 717 728
f 717 718 730 729
f 718 719 731 730
f 719 720 732 731
f 720 721 733 732
f 721 722 734 733
f 722 723 735 734
f 723 724 736 735
f 724 725 737 736
f 725 726 738 737
f 726 727 739 738
f 727 728 740 739
f 728 717 729 740
f 729 730 742 741
f 730 731 743 742
f 731 732 744 743
f 732 733 745 744
f 733 734 746 745
f 734 735 747 746
f 735 736 748 747
f 736 737 749 748
f 737 738 750 749
f 738 739 751 750
f 739 740 752 751
f 740 729 741 752
f 741 742 754 753
f 742 743 755 754
f 743 744 756 755
f 744 745 757 756
f 745 746 758 757
f 746 747 759 758
f 747 748 760 759
f 748 749 761 760
f 749 750 762 761
f 750 751 763 762
f 751 752 764 763
f 752 741 753 764
f 753 754 766 765
f 754 755 767 766
f 755 756 768 767
f 756 757 769 768
f 757 758 770 769
f 758 759 771 770
f 759 760 772 771
f 760 761 773 772
f 761 762 774 773
f 762 763 775 774
f 763 764 776 775
f 764 753 765 776
f 765 766 778 777
f 766 767 779 778
f 767 768 780 779
f 768 769 781 780
f 769 770 782 781
f 770 771 783 782
f 771 772 784 783
f 772 773 785 784
f 773 774 786 785
f 774 775 787 786
f 775 776 788 787
f 776 765 777 788
f 789 790 802 801
f 790 791 803 802
f 791 792 804 803
f 792 793 805 804
f 793 794 806 805
f 794 795 807 806
f 795 796 808 807
f 796 797 809 808
f 797 798 810 809
f 798 799 811 810
f 799 800 812 811
f 800 789 801 812
f 801 802 814 813
f 802 803 815 814
f 803 804 816 815
f 804 805 817 816
f 805 806 818 817
f 806 807 819 818
f 807 808 820 819
f 808 809 821 820
f 809 810 822 821
f 810 811 823 822
f 811 812 824 823
f 812 801 813 824
f 813 814 826 825
f 814 815 827 826
f 815 816 828 827
f 816 817 829 828
f 817 818 830 829
f 818 819 831 830
f 819 820 832 831
f 820 821 833 832
f 821 822 834 833
f 822 823 835 834
f 823 824 836 835
f 824 813 825 836
f 825 826 838 837
f 826 827 839 838
f 827 828 840 839
f 828 829 841 840
f 829 830 842 841
f 830 831 843 842
f 831 832 844 843
f 832 833 845 844
f 833 834 846 845
f 834 835 847 846
f 835 836 848 847
f 836 825 837 848
f 837 838 850 849
f 838 839 851 850
f 839 840 852 851
f 840 841 853 852
f 841 842 854 853
f 842 843 855 854
f 843 844 856 855
f 844 845 857 856
f 845 846 858 857
f 846 847 859 858
f 847 848 860 859
f 848 837 849 860
f 849 850 862 861
f 850 851 863 862
f 851 852 864 863
f 852 853 865 864
f 853 854 866 865
f 854 855 867 866
f 855 856 868 867
f 856 857 869 868
f 857 858 870 869
f 858 859 871 870
f 859 860 872 871
f 860 849 861 872
f 873 874 886 885
f 874 875 887 886
f 875 876 888 887
f 876 877 889 888
f 877 878 890 889
f 878 879 891 890
f 879 880 892 891
f 880 881 893 892
f 881 882 894 893
f 882 883 895 894
f 883 884 896 895
f 884 873 885 896
f 885 886 898 897
f 886 887 899 898
f 887 888 900 899
f 888 889 901 900
f 889 890 902 901
f 890 891 903 902
f 891 892 904 903
f 892 893 905 904
f 893 894 906 905
f 894 895 907 906
f 895 896 908 907
f 896 885 897 908
f 897 898 910 909
f 898 899 911 910
f 899 900 912 911
f 900 901 913 912
f 901 902 914 913
f 902 903 915 914
f 903 904 916 915
f 904 905 917 916
f 905 906 918 917
f 906 907 919 918
f 907 908 920 919
f 908 897 909 920
f 909 910 922 921
f 910 911 923 922
f 911 912 924 923
f 912 913 925 924
f 913 914 926 925
f 914 915 927 926
f 915 916 928 927
f 916 917 929 928
f 917 918 930 929
f 918 919 931 930
f 919 920 932 931
f 920 909 921 932
f 921 922 934 933
f 922 923 935 934
f 923 924 936 935
f 924 925 937 936
f 925 926 938 937
f 926 927 939 938
f 927 928 940 939
f 928 929 941 940
f 929 930 942 941
f 930 931 943 942
f 931 932 944 943
f 932 921 933 944
f 945 946 947 948 949
f 950 951 952 953 954
f 945 946 951 950
f 946 947 952 951
f 947 948 953 952
f 948 949 954 953
f 949 945 950 954
f 955 956 957 958
f 959 960 961 962
f 955 956 960 959
f 956 957 961 960
f 957 958 962 961
f 958 955 959 962
f 963 964 965 966
f 967 968 969 970
f 963 964 968 967
f 964 965 969 968
f 965 966 970 969
f 966 963 967 970
f 971 972 990 989
f 972 973 991 990
f 973 974 992 991
f 974 975 993 992
f 975 976 994 993
f 976 977 995 994
f 977 978 996 995
f 978 979 997 996
f 979 980 998 997
f 980 981 999 998
f 981 982 1000 999
f 982 983 1001 1000
f 983 984 1002 1001
f 984 985 1003 1002
f 985 986 1004 1003
f 986 987 1005 1004
f 987 988 1006 1005
f 988 971 989 1006
f 989 990 1008 1007
f 990 991 1009 1008
f 991 992 1010 1009
f 992 993 1011 1010
f 993 994 1012 1011
f 994 995 1013 1012
f 995 996 1014 1013
f 996 997 1015 1014
f 997 998 1016 1015
f 998 999 1017 1016
f 999 1000 1018 1017
f 1000 1001 1019 1018
f 1001 1002 1020 1019
f 1002 1003 1021 1020
f 1003 1004 1022 1021
f 1004 1005 1023 1022
f 1005 1006 1024 1023
f 1006 989 1007 1024
f 1007 1008 1026 1025
f 1008 1009 1027 1026
f 1009 1010 1028 1027
f 1010 1011 1029 1028
f 1011 1012 1030 1029
f 1012 1013 1031 1030
f 1013 1014 1032 1031
f 1014 1015 1033 1032
f 1015 1016 1034 1033
f 1016 1017 1035 1034
f 1017 1018 1036 1035
f 1018 1019 1037 1036
f 1019 1020 1038 1037
f 1020 1021 1039 1038
f 1021 1022 1040 1039
f 1022 1023 1041 1040
f 1023 1024 1042 1041
f 1024 1007 1025 1042
f 1025 1026 1044 1043
f 1026 1027 1045 1044
f 1027 1028 1046 1045
f 1028 1029 1047 1046
f 1029 1030 1048 1047
f 1030 1031 1049 1048
f 1031 1032 1050 1049
f 1032 1033 1051 1050
f 1033 1034 1052 1051
f 1034 1035 1053 1052
f 1035 1036 1054 1053
f 1036 1037 1055 1054
f 1037 1038 1056 1055
f 1038 1039 1057 1056
f 1039 1040 1058 1057
f 1040 1041 1059 1058
f 1041 1042 1060 1059
f 1042 1025 1043 1060
f 1043 1044 1062 1061
f 1044 1045 1063 1062
f 1045 1046 1064 1063
f 1046 1047 1065 1064
f 1047 1048 1066 1065
f 1048 1049 1067 1066
f 1049 1050 1068 1067
f 1050 1051 1069 1068
f 1051 1052 1070 1069
f 1052 1053 1071 1070
f 1053 1054 1072 1071
f 1054 1055 1073 1072
f 1055 1056 1074 1073
f 1056 1057 1075 1074
f 1057 1058 1076 1075
f 1058 1059 1077 1076
f 1059 1060 1078 1077
f 1060 1043 1061 1078
f 1061 1062 1080 1079
f 1062 1063 1081 1080
f 1063 1064 1082 1081
f 1064 1065 1083 1082
f 1065 1066 1084 1083
f 1066 1067 1085 1084
f 1067 1068 1086 1085
f 1068 1069 1087 1086
f 1069 1070 1088 1087
f 1070 1071 1089 1088
f 1071 1072 1090 1089
f 1072 1073 1091 1090
f 1073 1074 1092 1091
f 1074 1075 1093 1092
f 1075 1076 1094 1093
f 1076 1077 1095 1094
f 1077 1078 1096 1095
f 1078 1061 1079 1096
f 1079 1080 1098 1097
f 1080 1081 1099 1098
f 1081 1082 1100 1099
f 1082 1083 1101 1100
f 1083 1084 1102 1101
f 1084 1085 1103 1102
f 1085 1086 1104 1103
f 1086 1087 1105 1104
f 1087 1088 1106 1105
f 1088 1089 1107 1106
f 1089 1090 1108 1107
f 1090 1091 1109 1108
f 1091 1092 1110 1109
f 1092 1093 1111 1110
f 1093 1094 1112 1111
f 1094 1095 1113 1112
f 1095 1096 1114 1113
f 1096 1079 1097 1114
f 1097 1098 1116 1115
f 1098 1099 1117 1116
f 1099 1100 1118 1117
f 1100 1101 1119 1118
f 1101 1102 1120 1119
f 1102 1103 1121 1120
f 1103 1104 1122 1121
f 1104 1105 1123 1122
f 1105 1106 1124 1123
f 1106 1107 1125 1124
f 1107 1108 1126 1125
f 1108 1109 1127 1126
f 1109 1110 1128 1127
f 1110 1111 1129 1128
f 1111 1112 1130 1129
f 1112 1113 1131 1130
f 1113 1114 1132 1131
f 1114 1097 1115 1132
f 1133 1134 1135 1136 1137
f 1138 1139 1140 1141 1142
f 1133 1134 1139 1138
f 1134 1135 1140 1139
f 1135 1136 1141 1140
f 1136 1137 1142 1141
f 1137 1133 1138 1142
f 1143 1144 1145 1146 1147
f 1148 1149 1150 1151 1152
f 1143 1144 1149 1148
f 1144 1145 1150 1149
f 1145 1146 1151 1150
f 1146 1147 1152 1151
f 1147 1143 1148 1152
usemtl WHITE
f 1153 1154 1174 1173
f 1154 1155 1175 1174
f 1155 1156 1176 1175
f 1156 1157 1177 1176
f 1157 1158 1178 1177
f 1158 1159 1179 1178
f 1159 1160 1180 1179
f 1160 1161 1181 1180
f 1161 1162 1182 1181
f 1162 1163 1183 1182
f 1163 1164 1184 1183
f 1164 1165 1185 1184
f 1165 1166 1186 1185
f 1166 1167 1187 1186
f 1167 1168 1188 1187
f 1168 1169 1189 1188
f 1169 1170 1190 1189
f 1170 1171 1191 1190
f 1171 1172 1192 1191
f 1172 1153 1173 1192
f 1173 1174 1194 1193
f 1174 1175 1195 1194
f 1175 1176 1196 1195
f 1176 1177 1197 1196
f 1177 1178 1198 1197
f 1178 1179 1199 1198
f 1179 1180 1200 1199
f 1180 1181 1201 1200
f 1181 1182 1202 1201
f 1182 1183 1203 1202
f 1183 1184 1204 1203
f 1184 1185 1205 1204
f 1185 1186 1206 1205
f 1186 1187 1207 1206
f 1187 1188 1208 1207
f 1188 1189 1209 1208
f 1189 1190 1210 1209
f 1190 1191 1211 1210
f 1191 1192 1212 1211
f 1192 1173 1193 1212
f 1193 1194 1214 1213
f 1194 1195 1215 1214
f 1195 1196 1216 1215
f 1196 1197 1217 1216
f 1197 1198 1218 1217
f 1198 1199 1219 1218
f 1199 1200 1220 1219
f 1200 1201 1221 1220
f 1201 1202 1222 1221
f 1202 1203 1223 1222
f 1203 1204 1224 1223
f 1204 1205 1225 1224
f 1205 1206 1226 1225
f 1206 1207 1227 1226
f 1207 1208 1228 1227
f 1208 1209 1229 1228
f 1209 1210 1230 1229
f 1210 1211 1231 1230
f 1211 1212 1232 1231
f 1212 1193 1213 1232
f 1213 1214 1234 1233
f 1214 1215 1235 1234
f 1215 1216 1236 1235
f 1216 1217 1237 1236
f 1217 1218 1238 1237
f 1218 1219 1239 1238
f 1219 1220 1240 1239
f 1220 1221 1241 1240
f 1221 1222 1242 1241
f 1222 1223 1243 1242
f 1223 1224 1244 1243
f 1224 1225 1245 1244
f 1225 1226 1246 1245
f 1226 1227 1247 1246
f 1227 1228 1248 1247
f 1228 1229 1249 1248
f 1229 1230 1250 1249
f 1230 1231 1251 1250
f 1231 1232 1252 1251
f 1232 1213 1233 1252
f 1233 1234 1254 1253
f 1234 1235 1255 1254
f 1235 1236 1256 1255
f 1236 1237 1257 1256
f 1237 1238 1258 1257
f 1238 1239 1259 1258
f 1239 1240 1260 1259
f 1240 1241 1261 1260
f 1241 1242 1262 1261
f 1242 1243 1263 1262
f 1243 1244 1264 1263
f 1244 1245 1265 1264
f 1245 1246 1266 1265
f 1246 1247 1267 1266
f 1247 1248 1268 1267
f 1248 1249 1269 1268
f 1249 1250 1270 1269
f 1250 1251 1271 1270
f 1251 1252 1272 1271
f 1252 1233 1253 1272
f 1253 1254 1274 1273
f 1254 1255 1275 1274
f 1255 1256 1276 1275
f 1256 1257 1277 1276
f 1257 1258 1278 1277
f 1258 1259 1279 1278
f 1259 1260 1280 1279
f 1260 1261 1281 1280
f 1261 1262 1282 1281
f 1262 1263 1283 1282
f 1263 1264 1284 1283
f 1264 1265 1285 1284
f 1265 1266 1286 1285
f 1266 1267 1287 1286
f 1267 1268 1288 1287
f 1268 1269 1289 1288
f 1269 1270 1290 1289
f 1270 1271 1291 1290
f 1271 1272 1292 1291
f 1272 1253 1273 1292
f 1273 1274 1294 1293
f 1274 1275 1295 1294
f 1275 1276 1296 1295
f 1276 1277 1297 1296
f 1277 1278 1298 1297
f 1278 1279 1299 1298
f 1279 1280 1300 1299
f 1280 1281 1301 1300
f 1281 1282 1302 1301
f 1282 1283 1303 1302
f 1283 1284 1304 1303
f 1284 1285 1305 1304
f 1285 1286 1306 1305
f 1286 1287 1307 1306
f 1287 1288 1308 1307
f 1288 1289 1309 1308
f 1289 1290 1310 1309
f 1290 1291 1311 1310
f 1291 1292 1312 1311
f 1292 1273 1293 1312
